/* XPM */
static char *dummy[]={
"32 32 143 2",
"Qt c #000000",
".a c #00002e",
".b c #000037",
".c c #000040",
".d c #000049",
".C c #00004a",
".e c #000053",
".f c #00005c",
".g c #000065",
".X c #000066",
".h c #00006e",
".T c #00006f",
".i c #000077",
".O c #000078",
".j c #000080",
".K c #000081",
".k c #000089",
".G c #00008a",
"#c c #00008b",
".l c #000092",
".D c #000093",
"#. c #000094",
".m c #00009c",
".3 c #00009d",
".n c #0000a5",
".Y c #0000a6",
".o c #0000ae",
".U c #0000af",
"#o c #0000b0",
".p c #0000b7",
".P c #0000b8",
"#k c #0000b9",
".q c #0000c0",
".L c #0000c1",
"#g c #0000c2",
".r c #0000c9",
".H c #0000ca",
"#d c #0000cb",
".s c #0000d2",
".E c #0000d3",
"## c #0000d4",
"#F c #0000d5",
".t c #0000dc",
".7 c #0000dd",
"#B c #0000de",
".u c #0000e5",
".4 c #0000e6",
"#t c #0000e7",
".v c #0000ee",
".Z c #0000ef",
"#p c #0000f0",
"#V c #0000f1",
".w c #0000f7",
".Q c #0000f8",
"#l c #0000f9",
"#W c #0101f9",
".x c #0606f9",
".R c #0707f9",
"#q c #0808f9",
"#0 c #0909f9",
".y c #0e0ef9",
".0 c #0f0ff9",
"#x c #1010f9",
"#8 c #1111f9",
".z c #1616fa",
".5 c #1717fa",
"#G c #1818fa",
".A c #1e1efa",
"#a c #1f1ffa",
"#K c #2020fa",
".B c #2525fa",
".I c #2626fa",
"#h c #2727fa",
"#R c #2828fa",
".F c #2d2dfa",
".M c #2e2efa",
"#m c #2f2ffa",
"#1 c #3030fa",
".J c #3535fa",
".V c #3636fa",
"#u c #3737fa",
"#5 c #3838fa",
".N c #3d3dfa",
".1 c #3e3efa",
"#C c #3f3ffa",
"aa c #4040fa",
"ai c #4040fb",
".S c #4545fb",
".8 c #4646fb",
"#H c #4747fb",
"af c #4848fb",
".W c #4d4dfb",
"#e c #4e4efb",
"#O c #4f4ffb",
".2 c #5555fb",
"#i c #5656fb",
"#X c #5757fb",
".6 c #5d5dfb",
"#r c #5e5efb",
"#2 c #5f5ffb",
".9 c #6565fb",
"#y c #6666fb",
"#9 c #6767fb",
"#b c #6d6dfc",
"#D c #6e6efc",
"ab c #6f6ffc",
"#f c #7575fc",
"#L c #7676fc",
"aj c #7777fc",
"#j c #7d7dfc",
"#S c #7e7efc",
"#n c #8585fc",
"#Y c #8686fc",
"#s c #8c8cfc",
"#v c #8d8dfc",
"#6 c #8e8efc",
"#w c #9494fc",
"#z c #9595fc",
"#M c #9595fd",
"ac c #9696fd",
"#A c #9c9cfd",
"#I c #9d9dfd",
"ag c #9e9efd",
"#E c #a4a4fd",
"#P c #a5a5fd",
"#J c #acacfd",
"#T c #adadfd",
"#N c #b4b4fd",
"#3 c #b5b5fd",
"#Q c #bcbcfd",
"a. c #bdbdfd",
"#U c #c4c4fe",
"ad c #c5c5fe",
"#Z c #ccccfe",
"ak c #cdcdfe",
"#4 c #d4d4fe",
"#7 c #dcdcfe",
"a# c #e4e4fe",
"ae c #ececff",
"ah c #f4f4ff",
"al c #fbfbff",
"am c #fcfcff",
".# c #ffffff",
"QtQtQtQtQtQtQtQtQtQtQtQtQtQtQtQtQtQtQtQtQtQtQtQtQtQtQtQtQtQtQtQt",
"Qt.#.#.#.#.#.#.#.#.#.#.#.#.#.#.#.#.#.#.#.#.#.#.#.#.#.#.#.#.#.#Qt",
"Qt.#.a.b.c.d.e.f.g.h.i.j.k.l.m.n.o.p.q.r.s.t.u.v.w.x.y.z.A.B.#Qt",
"Qt.#.b.c.C.e.f.g.h.i.j.k.D.m.n.o.p.q.r.E.t.u.v.w.x.y.z.A.B.F.#Qt",
"Qt.#.c.C.e.f.g.h.i.j.G.D.m.n.o.p.q.H.E.t.u.v.w.x.y.z.A.I.F.J.#Qt",
"Qt.#.C.e.f.g.h.i.K.G.D.m.n.o.p.L.H.E.t.u.v.w.x.y.z.A.I.M.J.N.#Qt",
"Qt.#.e.f.g.h.O.K.G.D.m.n.o.P.L.H.E.t.u.v.Q.R.y.z.A.I.M.J.N.S.#Qt",
"Qt.#.f.g.T.O.K.G.D.m.n.U.P.L.H.E.t.u.v.Q.R.y.z.A.I.M.V.N.S.W.#Qt",
"Qt.#.X.T.O.K.G.D.m.Y.U.P.L.H.E.t.u.Z.Q.R.0.z.A.I.M.V.1.S.W.2.#Qt",
"Qt.#.T.O.K.G.D.3.Y.U.P.L.H.E.t.4.Z.Q.R.0.5.A.I.M.V.1.S.W.2.6.#Qt",
"Qt.#.O.K.G.D.3.Y.U.P.L.H.E.7.4.Z.Q.R.0.5.A.I.M.V.1.8.W.2.6.9.#Qt",
"Qt.#.K.G#..3.Y.U.P.L.H##.7.4.Z.Q.R.0.5#a.I.M.V.1.8.W.2.6.9#b.#Qt",
"Qt.##c#..3.Y.U.P.L#d##.7.4.Z.Q.R.0.5#a.I.M.V.1.8#e.2.6.9#b#f.#Qt",
"Qt.##..3.Y.U.P#g#d##.7.4.Z.Q.R.0.5#a#h.M.V.1.8#e#i.6.9#b#f#j.#Qt",
"Qt.#.3.Y.U#k#g#d##.7.4.Z#l.R.0.5#a#h#m.V.1.8#e#i.6.9#b#f#j#n.#Qt",
"Qt.#.Y#o#k#g#d##.7.4#p#l#q.0.5#a#h#m.V.1.8#e#i#r.9#b#f#j#n#s.#Qt",
"Qt.##o#k#g#d##.7#t#p#l#q.0.5#a#h#m#u.1.8#e#i#r.9#b#f#j#n#v#w.#Qt",
"Qt.##k#g#d##.7#t#p#l#q#x.5#a#h#m#u.1.8#e#i#r#y#b#f#j#n#v#z#A.#Qt",
"Qt.##g#d###B#t#p#l#q#x.5#a#h#m#u#C.8#e#i#r#y#D#f#j#n#v#z#A#E.#Qt",
"Qt.##d#F#B#t#p#l#q#x#G#a#h#m#u#C#H#e#i#r#y#D#f#j#n#v#z#I#E#J.#Qt",
"Qt.##F#B#t#p#l#q#x#G#K#h#m#u#C#H#e#i#r#y#D#L#j#n#v#M#I#E#J#N.#Qt",
"Qt.##B#t#p#l#q#x#G#K#h#m#u#C#H#O#i#r#y#D#L#j#n#v#M#I#P#J#N#Q.#Qt",
"Qt.##t#p#l#q#x#G#K#R#m#u#C#H#O#i#r#y#D#L#S#n#v#M#I#P#T#N#Q#U.#Qt",
"Qt.##V#W#q#x#G#K#R#m#u#C#H#O#X#r#y#D#L#S#Y#v#M#I#P#T#N#Q#U#Z.#Qt",
"Qt.##W#0#x#G#K#R#1#u#C#H#O#X#2#y#D#L#S#Y#v#M#I#P#T#3#Q#U#Z#4.#Qt",
"Qt.##0#x#G#K#R#1#5#C#H#O#X#2#y#D#L#S#Y#6#M#I#P#T#3#Q#U#Z#4#7.#Qt",
"Qt.##8#G#K#R#1#5#C#H#O#X#2#9#D#L#S#Y#6#M#I#P#T#3a.#U#Z#4#7a#.#Qt",
"Qt.##G#K#R#1#5aa#H#O#X#2#9ab#L#S#Y#6ac#I#P#T#3a.ad#Z#4#7a#ae.#Qt",
"Qt.##K#R#1#5aaaf#O#X#2#9ab#L#S#Y#6acag#P#T#3a.ad#Z#4#7a#aeah.#Qt",
"Qt.##R#1#5aiaf#O#X#2#9abaj#S#Y#6acag#P#T#3a.adak#4#7a#aeahal.#Qt",
"Qt.#.#.#.#.#.#.#.#.#.#.#.#.#.#.#.#.#.#.#.#.#.#.#.#.#.#aham.#.#Qt",
"QtQtQtQtQtQtQtQtQtQtQtQtQtQtQtQtQtQtQtQtQtQtQtQtQtQtQtQtQtQtQtQt"};
