/* XPM */
static char * exit_xpm[] = {
"32 32 415 2",
"  	c None",
". 	c #F6E3CD",
"+ 	c #9F753E",
"@ 	c #EAD6BE",
"# 	c #EDD6BD",
"$ 	c #F7E7D3",
"% 	c #A27640",
"& 	c #E6D1B9",
"* 	c #EEDBC2",
"= 	c #E2C29A",
"- 	c #D09A5A",
"; 	c #F5E3CF",
"> 	c #A37741",
", 	c #A47B47",
"' 	c #AE824A",
") 	c #B0834B",
"! 	c #B1834B",
"~ 	c #AF824A",
"{ 	c #A97C44",
"] 	c #CBA980",
"^ 	c #EAD3B9",
"/ 	c #E5C9A7",
"( 	c #D3A46C",
"_ 	c #CF9A5B",
": 	c #CF9959",
"< 	c #F3E2CD",
"[ 	c #A67A43",
"} 	c #AC8049",
"| 	c #303741",
"1 	c #363B42",
"2 	c #373C42",
"3 	c #353A41",
"4 	c #2A323B",
"5 	c #F7DCBC",
"6 	c #D9AE7A",
"7 	c #CD9A5B",
"8 	c #CE9C5F",
"9 	c #CD9A5A",
"0 	c #F2DFC9",
"a 	c #A77C45",
"b 	c #AD8049",
"c 	c #393E45",
"d 	c #414245",
"e 	c #424345",
"f 	c #404144",
"g 	c #343940",
"h 	c #DBA260",
"i 	c #D09B5E",
"j 	c #CE9B5F",
"k 	c #CE9C61",
"l 	c #CC985A",
"m 	c #F0DCC5",
"n 	c #AA7D46",
"o 	c #AE7F4A",
"p 	c #3B3F46",
"q 	c #434446",
"r 	c #454546",
"s 	c #434346",
"t 	c #373C43",
"u 	c #DAA462",
"v 	c #CE9C60",
"w 	c #CC9B60",
"x 	c #CC9A5F",
"y 	c #CA9759",
"z 	c #EDD9C0",
"A 	c #AB7E47",
"B 	c #AE7F49",
"C 	c #3D4248",
"D 	c #454648",
"E 	c #474748",
"F 	c #454548",
"G 	c #393E46",
"H 	c #D8A361",
"I 	c #CC9C5F",
"J 	c #CA9A5F",
"K 	c #CA995E",
"L 	c #C89659",
"M 	c #EBD5BB",
"N 	c #AD8149",
"O 	c #AF7D4B",
"P 	c #40444B",
"Q 	c #47484A",
"R 	c #49494A",
"S 	c #3C4148",
"T 	c #D7A160",
"U 	c #CB9B5E",
"V 	c #C9995E",
"W 	c #C9985D",
"X 	c #C79558",
"Y 	c #E8D2B6",
"Z 	c #B0824A",
"` 	c #4D8E00",
" .	c #468A00",
"..	c #B17A4C",
"+.	c #42454E",
"@.	c #48494C",
"#.	c #4A4A4C",
"$.	c #3D424A",
"%.	c #D49F5F",
"&.	c #C7975D",
"*.	c #C7965C",
"=.	c #C59357",
"-.	c #E6CFB2",
";.	c #B1844C",
">.	c #4A8C00",
",.	c #85AC00",
"'.	c #3A7D00",
").	c #B2774F",
"!.	c #454650",
"~.	c #4B4B4D",
"{.	c #4C4C4D",
"].	c #4A4B4D",
"^.	c #3F444B",
"/.	c #D39E5E",
"(.	c #C8975C",
"_.	c #C6965C",
":.	c #C6955B",
"<.	c #C49356",
"[.	c #E3CAAD",
"}.	c #B3854D",
"|.	c #448900",
"1.	c #D8E379",
"2.	c #7CAC00",
"3.	c #6A8416",
"4.	c #484557",
"5.	c #4D4C51",
"6.	c #4E4E4F",
"7.	c #4C4D4F",
"8.	c #41464E",
"9.	c #D19D5C",
"0.	c #C6965B",
"a.	c #C4955B",
"b.	c #C3945A",
"c.	c #C29156",
"d.	c #E1C6A9",
"e.	c #B6874F",
"f.	c #4A8B00",
"g.	c #468900",
"h.	c #448700",
"i.	c #428600",
"j.	c #3B8200",
"k.	c #D6E382",
"l.	c #C4DA58",
"m.	c #7DAF00",
"n.	c #467319",
"o.	c #4C4759",
"p.	c #4F4D54",
"q.	c #4F4F51",
"r.	c #4D4E51",
"s.	c #434850",
"t.	c #CE9B5C",
"u.	c #C2945B",
"v.	c #C1945C",
"w.	c #BF925C",
"x.	c #BE8F58",
"y.	c #DDC3A5",
"z.	c #B78950",
"A.	c #E6F09D",
"B.	c #D4E94E",
"C.	c #D4E951",
"D.	c #D1E74D",
"E.	c #D7E694",
"F.	c #97C000",
"G.	c #C6DD5E",
"H.	c #7FB400",
"I.	c #47751A",
"J.	c #4F4A5B",
"K.	c #514F55",
"L.	c #515153",
"M.	c #4F5053",
"N.	c #454A52",
"O.	c #CD995B",
"P.	c #C3935A",
"Q.	c #C1925A",
"R.	c #BF905C",
"S.	c #E1A93B",
"T.	c #F6B721",
"U.	c #D9BFA0",
"V.	c #BA8A52",
"W.	c #D8E987",
"X.	c #97C300",
"Y.	c #98C300",
"Z.	c #98C400",
"`.	c #99C500",
" +	c #9AC600",
".+	c #C7E160",
"++	c #81B700",
"@+	c #4B7719",
"#+	c #534F59",
"$+	c #535355",
"%+	c #535354",
"&+	c #515254",
"*+	c #484D53",
"=+	c #C19259",
"-+	c #BE915A",
";+	c #BC8E5C",
">+	c #F7B927",
",+	c #99724A",
"'+	c #D9BD9D",
")+	c #BB8C53",
"!+	c #CDE66D",
"~+	c #97C800",
"{+	c #98C800",
"]+	c #99C900",
"^+	c #9AC900",
"/+	c #A1CE06",
"(+	c #B6DF28",
"_+	c #479300",
":+	c #53505D",
"<+	c #545457",
"[+	c #545556",
"}+	c #525456",
"|+	c #494F56",
"1+	c #C99658",
"2+	c #C09158",
"3+	c #BD9059",
"4+	c #BA8D5C",
"5+	c #F7BA27",
"6+	c #A47B4F",
"7+	c #D7B897",
"8+	c #BD8E55",
"9+	c #458700",
"0+	c #C3E552",
"a+	c #9ACF00",
"b+	c #9BCF00",
"c+	c #9ACD00",
"d+	c #9FD300",
"e+	c #81BC00",
"f+	c #4D791C",
"g+	c #56525D",
"h+	c #565559",
"i+	c #565658",
"j+	c #545558",
"k+	c #4B5058",
"l+	c #C79557",
"m+	c #BE9057",
"n+	c #BB8F58",
"o+	c #B88C5A",
"p+	c #F5B827",
"q+	c #AE8254",
"r+	c #D2B492",
"s+	c #BE9055",
"t+	c #488900",
"u+	c #BEE839",
"v+	c #A1DA00",
"w+	c #A1D900",
"x+	c #A0D800",
"y+	c #9CD300",
"z+	c #9FD700",
"A+	c #80BE00",
"B+	c #4A751F",
"C+	c #555161",
"D+	c #57565B",
"E+	c #575859",
"F+	c #555759",
"G+	c #4C5259",
"H+	c #BC8E56",
"I+	c #BA8D56",
"J+	c #B78B58",
"K+	c #DFA83A",
"L+	c #F7B823",
"M+	c #CFB18E",
"N+	c #C19157",
"O+	c #4B8B00",
"P+	c #498A00",
"Q+	c #478800",
"R+	c #468700",
"S+	c #428300",
"T+	c #A1DC00",
"U+	c #A0DC00",
"V+	c #7EC000",
"W+	c #4B761F",
"X+	c #575364",
"Y+	c #59585E",
"Z+	c #595A5B",
"`+	c #57595B",
" @	c #4F555C",
".@	c #C39154",
"+@	c #BB8D55",
"@@	c #B98C55",
"#@	c #B88B56",
"$@	c #B78A57",
"%@	c #967045",
"&@	c #CDAD87",
"*@	c #C49258",
"=@	c #488800",
"-@	c #A6E500",
";@	c #7DC200",
">@	c #687E15",
",@	c #585367",
"'@	c #5B5960",
")@	c #5B5B5D",
"!@	c #595A5D",
"~@	c #51565E",
"{@	c #C19053",
"]@	c #B98C54",
"^@	c #B78B54",
"/@	c #A27B49",
"(@	c #CAAA82",
"_@	c #C5955A",
":@	c #85C800",
"<@	c #366F00",
"[@	c #A86A49",
"}@	c #575A65",
"|@	c #5B5C60",
"1@	c #5C5D5F",
"2@	c #5A5C5F",
"3@	c #535860",
"4@	c #BF8E52",
"5@	c #B88A53",
"6@	c #B68953",
"7@	c #AD824D",
"8@	c #C6A57C",
"9@	c #C8965B",
"0@	c #3F7B00",
"a@	c #A56C46",
"b@	c #595D65",
"c@	c #5D5F61",
"d@	c #5E5F61",
"e@	c #5C5E61",
"f@	c #555B63",
"g@	c #BD8C50",
"h@	c #B68952",
"i@	c #B48852",
"j@	c #B3864F",
"k@	c #C3A178",
"l@	c #CA985C",
"m@	c #A16E41",
"n@	c #5A5F65",
"o@	c #5F6162",
"p@	c #606162",
"q@	c #5F6062",
"r@	c #575D64",
"s@	c #BC8B4F",
"t@	c #B58851",
"u@	c #B38751",
"v@	c #B1854E",
"w@	c #BF9C72",
"x@	c #CC9A5E",
"y@	c #9E6E3F",
"z@	c #5B6167",
"A@	c #606264",
"B@	c #616264",
"C@	c #5F6164",
"D@	c #595E66",
"E@	c #B98A4E",
"F@	c #B28750",
"G@	c #B18650",
"H@	c #AF844D",
"I@	c #BA996C",
"J@	c #9D6D3F",
"K@	c #5E636A",
"L@	c #626467",
"M@	c #636466",
"N@	c #626466",
"O@	c #5B6169",
"P@	c #B7874D",
"Q@	c #B0844F",
"R@	c #AF844F",
"S@	c #B89466",
"T@	c #CF9D61",
"U@	c #9C6B3D",
"V@	c #60666B",
"W@	c #646668",
"X@	c #656667",
"Y@	c #646667",
"Z@	c #5D6369",
"`@	c #B6864B",
" #	c #AF834E",
".#	c #AE834E",
"+#	c #AD814C",
"@#	c #B38F62",
"##	c #D29F62",
"$#	c #9C6B3C",
"%#	c #61676D",
"&#	c #65676A",
"*#	c #666769",
"=#	c #5F646C",
"-#	c #B4854B",
";#	c #AC824E",
">#	c #AB804C",
",#	c #B18B5B",
"'#	c #D3A164",
")#	c #A16C38",
"!#	c #666B70",
"~#	c #696B6D",
"{#	c #6A6B6D",
"]#	c #686A6D",
"^#	c #64686F",
"/#	c #B5864A",
"(#	c #AE834C",
"_#	c #AC824D",
":#	c #AA814D",
"<#	c #A9804C",
"[#	c #AC8657",
"}#	c #D6A366",
"|#	c #5C5C5C",
"1#	c #5A5C5D",
"2#	c #595B5D",
"3#	c #5A5A5C",
"4#	c #5A5A5A",
"5#	c #5B5A5A",
"6#	c #57595C",
"7#	c #706557",
"8#	c #836E53",
"9#	c #9F7B4E",
"0#	c #AA7F4C",
"a#	c #A97F4C",
"b#	c #A87E4B",
"c#	c #A88150",
"d#	c #D8A467",
"e#	c #785A35",
"f#	c #926E41",
"g#	c #A47C4B",
"h#	c #DAA669",
"                                                          . +   ",
"                                                      @ # $ %   ",
"                                                  & * = - ; >   ",
"                , ' ) ! ! ! ! ! ! ! ! ! ! ~ { ] ^ / ( _ : < [   ",
"                } | 1 2 2 2 2 2 2 2 2 2 2 3 4 5 6 7 8 8 9 0 a   ",
"                b c d e e e e e e e e e e f g h i j k j l m n   ",
"                o p q r r r r r r r r r r s t u v w w x y z A   ",
"                B C D E E E E E E E E E E F G H I J J K L M N   ",
"                O P Q R R R R R R R R R R Q S T U V V W X Y Z   ",
"          `  .  ..+.@.#.#.#.#.#.#.#.#.#.#.@.$.%.W &.&.*.=.-.;.  ",
"          >.,.'.).!.~.{.{.{.{.{.{.{.{.{.{.].^./.(._._.:.<.[.}.  ",
"          |.1.2.3.4.5.6.6.6.6.6.6.6.6.6.6.7.8.9.0.a.a.b.c.d.e.  ",
"  f.g.h.i.j.k.l.m.n.o.p.q.q.q.q.q.q.q.q.q.r.s.t.a.u.v.w.x.y.z.  ",
"  g.A.B.C.D.E.F.G.H.I.J.K.L.L.L.L.L.L.L.L.M.N.O.P.Q.R.S.T.U.V.  ",
"  h.W.X.Y.Y.Z.`. +.+++@+#+$+%+%+%+%+%+%+%+&+*+y =+-+;+>+,+'+)+  ",
"  h.!+~+{+]+]+^+]+/+(+_+:+<+[+[+[+[+[+[+[+}+|+1+2+3+4+5+6+7+8+  ",
"  9+0+a+b+b+c+c+b+d+e+f+g+h+i+i+i+i+i+i+i+j+k+l+m+n+o+p+q+r+s+  ",
"  t+u+v+w+x+y+y+z+A+B+C+D+E+E+E+E+E+E+E+E+F+G+<.H+I+J+K+L+M+N+  ",
"  O+P+Q+R+S+T+U+V+W+X+Y+Z+Z+Z+Z+Z+Z+Z+Z+Z+`+ @.@+@@@#@$@%@&@*@  ",
"          =@-@;@>@,@'@)@)@)@)@)@)@)@)@)@)@!@~@{@]@^@^@^@/@(@_@  ",
"          O+:@<@[@}@|@1@1@1@1@1@1@1@1@1@1@2@3@4@5@6@6@6@7@8@9@  ",
"          ` 0@  a@b@c@d@d@d@d@d@d@d@d@d@d@e@f@g@h@i@i@i@j@k@l@  ",
"                m@n@o@p@p@p@p@p@p@p@p@p@p@q@r@s@t@u@u@u@v@w@x@  ",
"                y@z@A@B@B@B@B@B@B@B@B@B@B@C@D@E@F@G@G@G@H@I@v   ",
"                J@K@L@M@M@M@M@M@M@M@M@M@M@N@O@P@Q@R@R@R@7@S@T@  ",
"                U@V@W@X@X@X@X@X@X@X@X@X@X@Y@Z@`@ #.#.#.#+#@###  ",
"                $#%#&#*#*#*#*#*#*#*#*#*#*#&#=#-#.#;#;#;#>#,#'#  ",
"                )#!#~#{#{#{#{#{#{#{#{#{#{#]#^#/#(#_#:#:#<#[#}#  ",
"  |#|#|#|#|#|#1#2#3#4#5#5#5#5#5#5#5#5#5#5#4#6#7#8#9#0#a#b#c#d#  ",
"                                                      e#f#g#h#  ",
"                                                                ",
"                                                                "};
