/* XPM */
static char * invert_xpm[] = {
"30 30 143 2",
"  	c None",
". 	c #000000",
"+ 	c #4C4C4C",
"@ 	c #808080",
"# 	c #FFFFFF",
"$ 	c #69824B",
"% 	c #637A49",
"& 	c #335F23",
"* 	c #428513",
"= 	c #3D830C",
"- 	c #355B29",
"; 	c #4A5046",
"> 	c #3F6425",
", 	c #5A8F25",
"' 	c #91AB4E",
") 	c #96B63C",
"! 	c #45890A",
"~ 	c #3F6129",
"{ 	c #4A4E48",
"] 	c #4B5048",
"^ 	c #446725",
"/ 	c #60971C",
"( 	c #9FC640",
"_ 	c #A5C82A",
": 	c #AED01E",
"< 	c #A4C831",
"[ 	c #5C921B",
"} 	c #4B5342",
"| 	c #5F8D1D",
"1 	c #9ECD2B",
"2 	c #A8D41F",
"3 	c #97C800",
"4 	c #99C502",
"5 	c #AFD11F",
"6 	c #7E807E",
"7 	c #F3F8F1",
"8 	c #4B5442",
"9 	c #5E8D19",
"0 	c #92C90F",
"a 	c #9CD300",
"b 	c #99CC00",
"c 	c #98C800",
"d 	c #9AC502",
"e 	c #B0D11F",
"f 	c #375B29",
"g 	c #7D7F7C",
"h 	c #A9C997",
"i 	c #8EB772",
"j 	c #E8F0E0",
"k 	c #4B4E49",
"l 	c #496829",
"m 	c #5F9807",
"n 	c #8AC500",
"o 	c #9DD300",
"p 	c #9ACC00",
"q 	c #99C800",
"r 	c #46890A",
"s 	c #5B7E43",
"t 	c #A5C58E",
"u 	c #5E9822",
"v 	c #5F9718",
"w 	c #CDDFB9",
"x 	c #FDFEFD",
"y 	c #4B4F48",
"z 	c #8BC500",
"A 	c #A4C931",
"B 	c #69A021",
"C 	c #689F2F",
"D 	c #8FB536",
"E 	c #80AC28",
"F 	c #D1E2BD",
"G 	c #9ACD00",
"H 	c #B2CF4A",
"I 	c #B8D26F",
"J 	c #B6CE51",
"K 	c #8AB333",
"L 	c #D6E5C1",
"M 	c #9DD200",
"N 	c #98C403",
"O 	c #B4D43E",
"P 	c #BCD556",
"Q 	c #A8C734",
"R 	c #90B73F",
"S 	c #DDE9CE",
"T 	c #5E9607",
"U 	c #8AC300",
"V 	c #9CD200",
"W 	c #9EC60F",
"X 	c #A2C52E",
"Y 	c #6CA438",
"Z 	c #C2DBC9",
"` 	c #FEFEFE",
" .	c #638343",
"..	c #66A00E",
"+.	c #8DC600",
"@.	c #9ACF00",
"#.	c #99CB00",
"$.	c #9EC80B",
"%.	c #A9CB32",
"&.	c #83B13B",
"*.	c #D2E3C8",
"=.	c #7E807C",
"-.	c #ADCA8E",
";.	c #65A110",
">.	c #8CC700",
",.	c #A1CD0D",
"'.	c #AACE2F",
").	c #90B83D",
"!.	c #D9E6CA",
"~.	c #7F807E",
"{.	c #B6D097",
"].	c #6CA51F",
"^.	c #81C001",
"/.	c #97D500",
"(.	c #95CE02",
"_.	c #94CB03",
":.	c #95CA01",
"<.	c #98C907",
"[.	c #94C11A",
"}.	c #82B03B",
"|.	c #D8E5CA",
"1.	c #F5F9F1",
"2.	c #9CC073",
"3.	c #68A218",
"4.	c #7CB61E",
"5.	c #81B527",
"6.	c #84B430",
"7.	c #82B32E",
"8.	c #85B42F",
"9.	c #85B430",
"0.	c #7DAB35",
"a.	c #A9C789",
"b.	c #F4F8F0",
"c.	c #CCDEB9",
"d.	c #CFE0BD",
"e.	c #CFDFBD",
"f.	c #D6E3C9",
"g.	c #D3E0C7",
"h.	c #D4E2C4",
"i.	c #D5E2C5",
"j.	c #D4E1C6",
"k.	c #F3F7EF",
"l.	c #FEFFFE",
". . . . . . . . . . . . . . . . . . . . . . . . . . . . . . ",
".                                                         . ",
".   . . . . . . . . . . . . . . . . . . . . . . . . . .   . ",
".   . + + + + + + + + + + + + + + + + + + + + + + + @ .   . ",
".   . + + + + + + + + + + + + + + + + + + + + + + @ # .   . ",
".   . + + + + + + + + + + + + + + + + + + + + + @ # # .   . ",
".   . + + + + + + + $ % + + + + + + + + + + + @ # # # .   . ",
".   . + + + + + + & * = - + + + + + + + + + @ # # # # .   . ",
".   . + + + + ; > , ' ) ! ~ { + + + + + + @ # # # # # .   . ",
".   . + + + ] ^ / ( _ : < [ ~ { + + + + @ # # # # # # .   . ",
".   . + + + } | 1 2 3 4 5 < [ ~ { + + 6 7 # # # # # # .   . ",
".   . + + + 8 9 0 a b c d e < [ f + g h i j # # # # # .   . ",
".   . + + + k l m n o p q d e < r s t u v w x # # # # .   . ",
".   . + + + + y l m z o p q d e A B C D E F # # # # # .   . ",
".   . + + + + + y l m z o G q d 5 H I J K L # # # # # .   . ",
".   . + + + + + + y l m z M p c N O P Q R S # # # # # .   . ",
".   . + + + + + + + y l T U V b c 4 W X Y Z ` # # # # .   . ",
".   . + + + + + + + + y  ...+.@.#.c $.%.&.*.# # # # # .   . ",
".   . + + + + + + + + =.-.;.>.a @.p ,.'.).!.# # # # # .   . ",
".   . + + + + + + + ~.{.].^./.(._.:.<.[.}.|.` # # # # .   . ",
".   . + + + + + + @ 1.2.3.4.5.6.7.8.9.0.a.b.# # # # # .   . ",
".   . + + + + + @ # # j c.d.e.f.g.h.i.j.k.# # # # # # .   . ",
".   . + + + + @ # # # # l.# # # ` # # ` # # # # # # # .   . ",
".   . + + + @ # # # # # # # # # # # # # # # # # # # # .   . ",
".   . + + @ # # # # # # # # # # # # # # # # # # # # # .   . ",
".   . + @ # # # # # # # # # # # # # # # # # # # # # # .   . ",
".   . @ # # # # # # # # # # # # # # # # # # # # # # # .   . ",
".   . . . . . . . . . . . . . . . . . . . . . . . . . .   . ",
".                                                         . ",
". . . . . . . . . . . . . . . . . . . . . . . . . . . . . . "};
