/* XPM */
static char * ImageOpen_xpm[] = {
"32 32 401 2",
"  	c None",
". 	c #81B04F",
"+ 	c #2C7900",
"@ 	c #82B053",
"# 	c #709D00",
"$ 	c #E6EBAB",
"% 	c #CC9340",
"& 	c #D0943D",
"* 	c #CF923B",
"= 	c #CF923A",
"- 	c #82B054",
"; 	c #70A000",
"> 	c #D8DB8A",
", 	c #A9C219",
"' 	c #D9DC8A",
") 	c #FFFCDB",
"! 	c #FFF8D7",
"~ 	c #FFF7D8",
"{ 	c #83B055",
"] 	c #71A300",
"^ 	c #CFE07A",
"/ 	c #98BC00",
"( 	c #F9CF5D",
"_ 	c #84B156",
": 	c #73A600",
"< 	c #C5DB5F",
"[ 	c #99BF00",
"} 	c #9AC000",
"| 	c #9AC100",
"1 	c #FFF6D3",
"2 	c #83B050",
"3 	c #77AB00",
"4 	c #C0DB41",
"5 	c #9EC700",
"6 	c #9BC400",
"7 	c #9AC400",
"8 	c #87B251",
"9 	c #FFF8DA",
"0 	c #FFF9D9",
"a 	c #FFFDDE",
"b 	c #FFF5CF",
"c 	c #2D7900",
"d 	c #377F00",
"e 	c #3B8100",
"f 	c #3A8100",
"g 	c #CBE46D",
"h 	c #9AC800",
"i 	c #9AC700",
"j 	c #317B00",
"k 	c #F8D266",
"l 	c #F8D265",
"m 	c #F9D262",
"n 	c #FFF7D5",
"o 	c #FFF5C9",
"p 	c #F9D469",
"q 	c #F9D56E",
"r 	c #F9D56F",
"s 	c #3D8200",
"t 	c #C3E354",
"u 	c #99CD00",
"v 	c #F9D56D",
"w 	c #FAD56E",
"x 	c #FAD56D",
"y 	c #FAD569",
"z 	c #FFF5C7",
"A 	c #CF923C",
"B 	c #C79140",
"C 	c #FDF2C3",
"D 	c #F5D46D",
"E 	c #ECD273",
"F 	c #E5CF78",
"G 	c #448500",
"H 	c #BDE53F",
"I 	c #99D200",
"J 	c #D7CB7C",
"K 	c #F9D973",
"L 	c #FBDB74",
"M 	c #FCDC74",
"N 	c #FCDC73",
"O 	c #FDDC70",
"P 	c #FFF3BD",
"Q 	c #CF933D",
"R 	c #CE913B",
"S 	c #F8ECBA",
"T 	c #F5D36B",
"U 	c #F5D36F",
"V 	c #EDCC6D",
"W 	c #4A8700",
"X 	c #B6E72B",
"Y 	c #9AD900",
"Z 	c #9AD800",
"` 	c #EDCE6D",
" .	c #F1D270",
"..	c #D4A44D",
"+.	c #C58836",
"@.	c #CB8C36",
"#.	c #CB8B36",
"$.	c #CB8B35",
"%.	c #CC8C35",
"&.	c #CE9038",
"*.	c #CE913A",
"=.	c #CD903B",
"-.	c #FDF0BB",
";.	c #F8D870",
">.	c #F6D672",
",.	c #F2D471",
"'.	c #4C8A00",
").	c #B2ED19",
"!.	c #A1E400",
"~.	c #A1E300",
"{.	c #F5D875",
"].	c #DAA950",
"^.	c #D9A348",
"/.	c #FBF5D6",
"(.	c #FFF7D6",
"_.	c #FFF6D5",
":.	c #FFF7D4",
"<.	c #FFFCD9",
"[.	c #CF923D",
"}.	c #FFF1B8",
"|.	c #FADB74",
"1.	c #FBDC77",
"2.	c #F8DB78",
"3.	c #5E900D",
"4.	c #498900",
"5.	c #478700",
"6.	c #DAA952",
"7.	c #DDA84F",
"8.	c #FBD56A",
"9.	c #F9D265",
"0.	c #F8D063",
"a.	c #F8D062",
"b.	c #F8D060",
"c.	c #FBDB7F",
"d.	c #FBEDC8",
"e.	c #C08636",
"f.	c #FFF1B5",
"g.	c #FCDD77",
"h.	c #FEE07C",
"i.	c #DBA951",
"j.	c #C28635",
"k.	c #C08333",
"l.	c #C38636",
"m.	c #DAA74E",
"n.	c #FCD870",
"o.	c #FAD66F",
"p.	c #F9D46D",
"q.	c #F9D46C",
"r.	c #F9D36C",
"s.	c #F9D268",
"t.	c #FEE7A1",
"u.	c #EACA93",
"v.	c #FFF1B1",
"w.	c #FDE17A",
"x.	c #EFC768",
"y.	c #D9A346",
"z.	c #FCF1C3",
"A.	c #FBEEBF",
"B.	c #FBEEC0",
"C.	c #FBEEC1",
"D.	c #FCEFC4",
"E.	c #FAD76F",
"F.	c #FAD771",
"G.	c #F9D671",
"H.	c #F9D66F",
"I.	c #FAD56B",
"J.	c #FFF1BC",
"K.	c #DFAD63",
"L.	c #CE923D",
"M.	c #FFF0AE",
"N.	c #FFE47E",
"O.	c #DEAD53",
"P.	c #EBC473",
"Q.	c #FEEFBC",
"R.	c #FAD86C",
"S.	c #FAD86E",
"T.	c #FAD86F",
"U.	c #FAD96F",
"V.	c #FAD970",
"W.	c #FAD973",
"X.	c #FAD974",
"Y.	c #FBD974",
"Z.	c #FDDB73",
"`.	c #FFDC72",
" +	c #FFDC71",
".+	c #FFDC6F",
"++	c #FFE384",
"@+	c #FFEDB5",
"#+	c #D49134",
"$+	c #FFF2AA",
"%+	c #FFE681",
"&+	c #D0963F",
"*+	c #F8DF97",
"=+	c #FADA72",
"-+	c #FADB75",
";+	c #FADB76",
">+	c #FADB77",
",+	c #FEDD75",
"'+	c #8F7A58",
")+	c #CF923E",
"!+	c #FFF3A9",
"~+	c #F6D776",
"{+	c #D59B42",
"]+	c #FFEEB0",
"^+	c #FBE28B",
"/+	c #FBDD78",
"(+	c #FBDD7A",
"_+	c #FDDE79",
":+	c #FFE275",
"<+	c #7C9CA9",
"[+	c #3D7CBD",
"}+	c #3F7CBB",
"|+	c #3E7CBB",
"1+	c #3F7CBA",
"2+	c #407CB9",
"3+	c #407CB8",
"4+	c #407CB7",
"5+	c #427EB7",
"6+	c #4983B9",
"7+	c #4F84B4",
"8+	c #FFF5A6",
"9+	c #E6BB5F",
"0+	c #E5BB69",
"a+	c #FFEFAF",
"b+	c #FCE07D",
"c+	c #FCDF7C",
"d+	c #FCDF7D",
"e+	c #FFE07C",
"f+	c #FFE676",
"g+	c #3B7ABD",
"h+	c #DFF6FF",
"i+	c #DAF3FF",
"j+	c #D8F3FF",
"k+	c #DAF4FF",
"l+	c #E0F3FF",
"m+	c #E3F3FF",
"n+	c #E3F4FF",
"o+	c #E2F3FF",
"p+	c #E2F4FF",
"q+	c #E6F9FF",
"r+	c #4F85B5",
"s+	c #CF933F",
"t+	c #FFF6A6",
"u+	c #D59D45",
"v+	c #F7DC8E",
"w+	c #FFE99C",
"x+	c #FCE17F",
"y+	c #FCE181",
"z+	c #FFE380",
"A+	c #FFE87A",
"B+	c #3979BB",
"C+	c #FBFFFF",
"D+	c #DDCD81",
"E+	c #FFCC2D",
"F+	c #FFCC25",
"G+	c #79CDFF",
"H+	c #80CDFF",
"I+	c #81CEFF",
"J+	c #81CFFF",
"K+	c #80CCFF",
"L+	c #8BCEFF",
"M+	c #FFFFFF",
"N+	c #4C82B3",
"O+	c #D09440",
"P+	c #FEEC96",
"Q+	c #D19640",
"R+	c #FFF0A6",
"S+	c #FEE68F",
"T+	c #FDE383",
"U+	c #FDE384",
"V+	c #FFE583",
"W+	c #FFEB7D",
"X+	c #F0FFFF",
"Y+	c #FFC128",
"Z+	c #FFC333",
"`+	c #FFC327",
" @	c #84D2FF",
".@	c #8CD3FF",
"+@	c #93C197",
"@@	c #9CB21C",
"#@	c #8CD2FF",
"$@	c #87CFFF",
"%@	c #FDFFFF",
"&@	c #D09541",
"*@	c #F2D37C",
"=@	c #E0B25F",
"-@	c #FFEFA5",
";@	c #FDE686",
">@	c #FDE587",
",@	c #FFE786",
"'@	c #FFED81",
")@	c #3979BA",
"!@	c #EBFDFF",
"~@	c #FFB71C",
"{@	c #FFB823",
"]@	c #DEC57A",
"^@	c #90D8FF",
"/@	c #96DAFF",
"(@	c #95AD20",
"_@	c #95AF2C",
":@	c #91D5FF",
"<@	c #F6FEFF",
"[@	c #D19743",
"}@	c #DFB35D",
"|@	c #F2D382",
"1@	c #FFEF9A",
"2@	c #FFEA8A",
"3@	c #FFEA8B",
"4@	c #FFEB8A",
"5@	c #FFF185",
"6@	c #3B79B9",
"7@	c #EBFAFF",
"8@	c #90D9FF",
"9@	c #92DAFF",
"0@	c #97DAFF",
"a@	c #9CDBFF",
"b@	c #91B978",
"c@	c #8CAA29",
"d@	c #8DAB32",
"e@	c #91B977",
"f@	c #9ADAFF",
"g@	c #F1FBFF",
"h@	c #D29844",
"i@	c #FFFBA8",
"j@	c #FFF49A",
"k@	c #FFF395",
"l@	c #FFF494",
"m@	c #FFF88D",
"n@	c #3C7BBA",
"o@	c #E7F8FF",
"p@	c #9FDCFF",
"q@	c #A2DCFF",
"r@	c #A3DDFF",
"s@	c #A6E1FF",
"t@	c #829F11",
"u@	c #85A527",
"v@	c #86A72E",
"w@	c #A3E0FF",
"x@	c #EAFAFF",
"y@	c #CF9744",
"z@	c #CE923E",
"A@	c #D0923D",
"B@	c #DB9433",
"C@	c #3E7EBD",
"D@	c #E3F6FF",
"E@	c #A9E0FF",
"F@	c #ABDFFF",
"G@	c #ACE0FF",
"H@	c #AEE3FF",
"I@	c #8FB571",
"J@	c #7B9B19",
"K@	c #7C9F22",
"L@	c #8EB571",
"M@	c #ABE3FF",
"N@	c #E6F7FF",
"O@	c #4D82B3",
"P@	c #4081BF",
"Q@	c #DFF5FF",
"R@	c #B4E7FF",
"S@	c #B5E7FF",
"T@	c #B6E7FF",
"U@	c #B7E8FF",
"V@	c #B8ECFF",
"W@	c #BAF3FF",
"X@	c #9C5614",
"Y@	c #B4E8FF",
"Z@	c #E1F6FF",
"`@	c #4D83B4",
" #	c #4482BE",
".#	c #DEF6FF",
"+#	c #93C032",
"@#	c #96C23C",
"##	c #96C23F",
"$#	c #97C23F",
"%#	c #97C442",
"&#	c #98CA48",
"*#	c #8F401A",
"=#	c #96C43F",
"-#	c #4E83B5",
";#	c #4983BA",
">#	c #DCF7FF",
",#	c #88B22D",
"'#	c #8BB53C",
")#	c #8CB640",
"!#	c #8CB740",
"~#	c #8DB941",
"{#	c #8DBB43",
"]#	c #8BB63C",
"^#	c #4D83B6",
"/#	c #DAF6FF",
"(#	c #9AC07B",
"_#	c #7CA322",
":#	c #7EA527",
"<#	c #5185B5",
"[#	c #DEFAFF",
"}#	c #D5F5FF",
"|#	c #D6F6FF",
"1#	c #D7F7FF",
"2#	c #5283B0",
"3#	c #4F83B5",
"4#	c #4F83B6",
"                                                                ",
"                . + .                                           ",
"              @ # $ # @                                         ",
"  % & * = = - ; > , ' ; -                                       ",
"  & ) ! ~ { ] ^ / / / ^ ] {                                     ",
"  * ! ( _ : < [ } | } [ < : _ = = = = = = = = = = & %           ",
"  * 1 2 3 4 5 6 7 6 7 6 5 4 3 8 9 9 9 9 9 9 9 9 0 a &           ",
"  * b c d e f g h i h g f e d j k k k k k k k l m n *           ",
"  * o p q r s t u u u t s v q q w w w w w w w x y z A           ",
"  B C D E F G H I I I H G F J K L M M M M M M N O P Q           ",
"  R S T U V W X Y Z Y X W `  ...+.@.@.@.@.@.@.#.$.%.&.*.* & %   ",
"  =.-.;.>.,.'.).!.~.!.).'.{.].^./.(._._._._._._._.n n n :.<.&   ",
"  [.}.|.1.2.3.4.5.5.5.4.3.6.7.8.9.0.a.a.a.a.a.a.a.a.a.b.c.d.e.  ",
"  [.f.g.h.i.j.k.k.k.k.k.l.m.n.o.p.p.q.q.q.q.q.q.q.q.r.s.t.u.    ",
"  [.v.w.x.y.z.A.B.B.B.C.D.E.F.G.G.G.G.G.G.G.G.G.G.G.H.I.J.K.    ",
"  L.M.N.O.P.Q.R.S.T.T.U.V.W.X.X.Y.Z.`.`. + + + + + +.+++@+#+    ",
"  L.$+%+&+*+t.=+-+;+;+;+;+>+>+>+,+,+,+,+,+,+,+,+,+,+,+@+u.'+    ",
"  )+!+~+{+]+^+/+(+(+(+(+(+(+(+_+:+<+[+}+|+1+2+3+3+3+3+4+5+6+7+  ",
"  )+8+9+0+a+b+c+d+d+d+d+d+d+d+e+f+g+h+i+j+k+l+m+n+n+n+o+p+q+r+  ",
"  s+t+u+v+w+x+y+y+y+y+y+y+y+y+z+A+B+C+D+E+F+G+H+I+J+I+K+L+M+N+  ",
"  O+P+Q+R+S+T+U+U+U+U+U+U+U+U+V+W+B+X+Y+Z+`+ @.@+@@@+@#@$@%@N+  ",
"  &@*@=@-@;@>@>@>@>@>@>@>@>@>@,@'@)@!@~@{@]@^@/@(@_@(@/@:@<@N+  ",
"  [@}@|@1@2@3@3@3@3@3@3@3@3@3@4@5@6@7@8@9@0@a@b@c@d@c@e@f@g@N+  ",
"  h@s+i@j@k@k@k@k@k@k@k@k@k@k@l@m@n@o@p@q@r@s@t@u@v@u@t@w@x@N+  ",
"  y@h@O+z@z@z@z@z@z@z@z@z@z@z@A@B@C@D@E@F@G@H@I@J@K@J@L@M@N@O@  ",
"                                  P@Q@R@S@T@U@V@W@X@W@V@Y@Z@`@  ",
"                                   #.#+#@###$#%#&#*#&#=#+#h+-#  ",
"                                  ;#>#,#'#)#)#!#~#{#~#]#,#>#-#  ",
"                                  ^#/#(#_#:#:#:#:#:#:#_#(#/#-#  ",
"                                  <#[#}#|#1#1#1#1#1#1#|#}#[#<#  ",
"                                  2#<#3#-#4#4#4#4#4#4#-#3#<#2#  ",
"                                                                "};
