/* XPM */
static char *dummy[]={
"32 32 4 1",
". c #000000",
"# c #0000ff",
"b c #c0c0c0",
"a c #ffffff",
"................................",
".##############ab##############.",
".bbbbbbabbbbbb#ab#bbbbbbabbbbbb.",
".##############ba##############.",
".bbbbbbabbbbbb#ab#bbbbbbabbbbbb.",
".##############ba##############.",
".bbbbbbabbbbbb#ba#bbbbbbabbbbbb.",
".##############ab##############.",
".bbbbbbabbbbbb#ba#bbbbbbabbbbbb.",
".##############ab##############.",
".bbbbbbabbbbbb#ab#bbbbbbabbbbbb.",
".##############ba##############.",
".bbbbbbabbbbbb#ab#bbbbbbabbbbbb.",
".##############ab##############.",
".bbbbbbabbbbbb#ba#bbbbbbabbbbbb.",
".##############ba##############.",
".bbbbbbabbbbbb#ba#bbbbbbabbbbbb.",
".##############ba##############.",
".bbbbbbabbbbbb#ab#bbbbbbabbbbbb.",
".##############ab##############.",
".bbbbbbabbbbbb#ab#bbbbbbabbbbbb.",
".##############ba##############.",
".bbbbbbabbbbbb#ba#bbbbbbabbbbbb.",
".##############ab##############.",
".bbbbbbabbbbbb#ab#bbbbbbabbbbbb.",
".##############ab##############.",
".bbbbbbabbbbbb#ba#bbbbbbabbbbbb.",
".##############ba##############.",
".bbbbbbabbbbbb#ba#bbbbbbabbbbbb.",
".##############ba##############.",
".bbbbbbabbbbbb#ab#bbbbbbabbbbbb.",
"................................"};
