/* XPM */
static char *dummy[]={
"32 32 4 1",
". c #000000",
"# c #0000ff",
"a c #cccccc",
"b c #ff0000",
"................................",
".##############################.",
".aaaaaaaaaaaaaa##aaaaaaaaaaaaaa.",
".##############################.",
".aaaaaaaaaaaaaa##aaaaaaaaaaaaaa.",
".##############################.",
".aaaaaaaaaaaaaa##aaaaaaaaaaaaaa.",
".##############################.",
".aaaaaaaaaaaaaa#..........#aaaa.",
".############...bbbbbbbbbb..###.",
".aaaaaaaaaa#.bbbbbbbbbbbbbbb#aa.",
".##########.bbbbbbbbbbbbbbb.###.",
".aaaaaaaa#.bbbbbbbbbbbbbbbb.#aa.",
".########.bbbbbbbbbbbbbbbb.####.",
".aaaaaaa#.bbbbbbbbbbbbbbb.#aaaa.",
".#######..bbbbbbbbbbbbbbb.#####.",
".aaaaa#.bbbbbbbbbbbbbbbbb.#aaaa.",
".#####.bbbbbbbbbbbbbbbbbb.#####.",
".aaa#.bbbbbbbbbbbbbbbbbbb.#aaaa.",
".###.bbbbbbbbbbbbbbbbbb.#######.",
".aaa#..bbbbbbbbbbbbbb..#aaaaaaa.",
".#####.bbbbbbbbbbbb.###########.",
".aaaaa#.bbbbbbbbbb.#aaaaaaaaaaa.",
".######..bbbbbbbbb.############.",
".aaaaaa#.bbbbbbbb.#aaaaaaaaaaaa.",
".########........##############.",
".aaaaaaaaaaaaaa##aaaaaaaaaaaaaa.",
".##############################.",
".aaaaaaaaaaaaaa##aaaaaaaaaaaaaa.",
".##############################.",
".aaaaaaaaaaaaaa##aaaaaaaaaaaaaa.",
"................................"};
